<svg version="1.2" xmlns="http://www.w3.org/2000/svg" viewBox="0 0 1200 252" width="1200" height="252">
	<defs>
		<!-- Glow filter for the Z -->
		<filter id="z-glow" x="-50%" y="-50%" width="200%" height="200%">
			<feGaussianBlur in="SourceGraphic" stdDeviation="8" result="blur"/>
			<feMerge>
				<feMergeNode in="blur"/>
				<feMergeNode in="blur"/>
				<feMergeNode in="SourceGraphic"/>
			</feMerge>
		</filter>
	</defs>
	<style>
		.s0 { fill: #ffffff }
		.s1 { opacity: 1;fill: #ffffff }
		.s2 { fill: #d552b7 }
	</style>
	<path id="Path 0" class="s0" d="m925 128v94h78l-0.5-36.5-39.5-0.5v-43h36v-35h-36v-37h37v-36h-75z"/>
	<path id="Path 0" class="s0" d="m832 52v18h22v152h38v-152h22v-36h-82z"/>
	<path id="Path 1" class="s1" d="m787 128v94l34.5 0.04c1.15-5.84 1.48-48.15 1.49-97.79l0.01-90.25h-36z"/>
	<path id="Path 0" class="s0" d="m716 33.13c-2.48 0.5-6.98 2.03-10 3.39-3.02 1.36-7.38 4.39-9.68 6.73-2.31 2.34-5.32 6.5-6.7 9.25-1.37 2.75-3.2 7.92-4.05 11.5-0.85 3.57-1.55 10.78-1.56 16-0.02 5.84 0.59 11.62 1.58 15 0.88 3.03 3.02 8.2 4.74 11.5 2.32 4.42 8.18 11.14 22.26 25.5 13.29 13.56 19.91 21.1 21.76 24.75 1.46 2.89 3.12 8.29 3.69 12 0.57 3.71 0.7 8.78 0.29 11.25-0.41 2.47-1.56 5.51-2.54 6.75-1.28 1.6-2.87 2.26-5.54 2.28-2.75 0.01-4.41-0.67-6.25-2.58-2.43-2.53-2.51-3.07-2.75-18.53l-0.25-15.92h-37c0.03 25.02 0.58 33.01 1.54 37.5 0.83 3.85 2.74 9.66 4.24 12.91 1.82 3.95 4.54 7.53 8.22 10.82 3.09 2.76 7.8 5.76 10.75 6.84 2.89 1.06 9.19 2.44 14 3.06 6.52 0.84 10.79 0.84 16.75-0.01 4.74-0.68 10.45-2.32 14-4.02 3.55-1.7 7.54-4.67 9.78-7.24 2.07-2.4 4.82-6.61 6.11-9.36 1.29-2.75 3.05-8.15 3.91-12 0.86-3.85 1.86-11.05 2.23-16 0.39-5.39 0.18-12.41-0.53-17.5-0.65-4.68-2.37-11.43-3.82-15-1.46-3.57-4.65-9.2-7.1-12.5-2.44-3.3-12.49-13.88-22.32-23.5-11.15-10.92-18.58-19.01-19.75-21.5-1.02-2.2-1.95-5.13-2.05-6.5-0.1-1.38-0.13-3.51-0.07-4.75 0.06-1.24 1.01-3.15 2.11-4.25 1.28-1.28 3.35-2.01 5.75-2.02 2.06-0.01 4.65 0.63 5.75 1.42 1.66 1.19 2.08 2.92 2.5 10.27l0.5 8.83h38c-0.42-10.85-1.26-17.38-2.14-21.5-0.88-4.13-2.89-10.09-4.48-13.25-1.58-3.16-4.46-7.33-6.38-9.25-1.92-1.92-5.86-4.69-8.75-6.13-2.89-1.45-8.63-3.24-12.75-3.97-4.13-0.73-10.2-1.3-13.5-1.26-3.3 0.05-8.02 0.49-10.5 0.99z"/>
	<path id="Path 0" fill-rule="evenodd" class="s0" d="m584.13 33.87l30.69 0.34c29.72 0.32 30.87 0.41 36.68 2.75 3.65 1.47 7.66 4.1 10.25 6.73 2.34 2.37 5.57 7.12 7.19 10.56 1.62 3.44 3.69 9.85 4.6 14.25 1.09 5.28 1.66 12.92 1.67 22.5 0.01 7.97-0.5 17.42-1.13 21-0.64 3.58-2.15 9.35-3.37 12.84-1.21 3.49-3.81 8.44-5.76 11-2.31 3.05-5.58 5.7-9.42 7.66-5.5 2.81-6.8 3.03-34.03 4l-0.5 74.5h-37zm36.87 80.13c7.36-0.9 10.51-1.8 11.75-2.58 1.24-0.78 2.97-3.11 3.85-5.17 1.28-3 1.52-6.36 1.2-16.75-0.27-8.61-0.9-13.97-1.86-15.87-0.79-1.58-2.68-3.49-4.19-4.25-1.51-0.76-4.55-1.38-6.75-1.38h-4z"/>
	<path id="Path 0" fill-rule="evenodd" class="s0" d="m491.13 34h63.87l0.05 2.75c0.02 1.51 3.98 43.7 17.53 184.75l-17.54 0.24c-9.65 0.13-17.64 0.13-17.77 0-0.13-0.13-0.8-6.99-2.77-30.24h-23l-1.13 15c-0.63 8.25-1.19 15.11-1.25 15.25-0.07 0.14-8.22 0.25-18.12 0.25-11.33 0-18-0.37-18-1 0-0.55 3.81-40.49 8.46-88.75 4.66-48.26 8.74-90.11 9.07-93zm24.99 104.33c-0.89 12.55-1.4 23.03-1.12 23.27 0.27 0.25 3.99 0.44 8.25 0.43l7.75-0.03c0.01-5.04-1.57-25.18-3.51-48-1.94-22.83-3.67-42.96-3.85-44.75-0.18-1.79-0.77-3.25-1.33-3.25-0.6 0-1.72 9.96-2.79 24.75-0.98 13.61-2.51 35.02-3.4 47.58z"/>
	<path id="Path 0" class="s0" d="m424.76 78.25l-0.26 44.25c-7.29-37.2-11.08-56.55-13.12-67l-3.7-19-38.68 49.5 0.5 100.26c14.9 10.26 21.99 15.38 25.36 17.99l6.14 4.75-17.5 13.03 21.5-0.03c0.13-73.8 0.51-91.49 1.03-90 0.47 1.37 4.83 22.2 9.67 46.27l8.8 43.77 36.5-0.04v-188h-35.98z"/>
	<!-- The Z with glow filter applied -->
	<path id="Path 0" class="s2" filter="url(#z-glow)" d="m216.46 34.25c-0.32 1.24-0.44 9.3-0.27 17.92 0.17 8.62 0.53 15.92 0.81 16.22 0.27 0.3 22.77 0.84 50 1.19 27.23 0.35 49.73 0.81 50 1.02 0.27 0.21-3.44 5.45-8.25 11.64-4.81 6.19-14.26 18.26-21 26.81-6.74 8.56-20.8 26.36-31.25 39.58-10.45 13.21-24.7 31.41-31.67 40.44-6.96 9.04-16.07 20.71-20.24 25.93-4.17 5.22-7.59 10.06-7.59 10.75 0 0.95 4.46 1.27 18.75 1.33 10.31 0.05 24.6 0.19 31.75 0.31 7.15 0.13 32.01 0.32 55.25 0.42l42.25 0.19c0 16 0.4 20 1 20 0.55 0 4.39-2.36 8.53-5.25 4.14-2.89 13.81-9.75 21.49-15.25 7.68-5.5 16.48-11.8 19.57-14l5.61-4c-6.74-5.86-13.99-11.14-20.45-15.53-6.46-4.38-11.75-8.42-11.75-8.97 0-0.55-0.45-1-1-1-0.55 0-5.39-2.94-10.75-6.53-5.36-3.59-10.31-6.52-11-6.5-0.93 0.02-1.19 2.46-1 9.45 0.14 5.18 0.02 9.63-0.25 9.88-0.27 0.25-7.02 0.6-15 0.77-7.98 0.17-20.69 0.22-28.25 0.12l-13.75-0.19c5.81-8.36 10.73-14.78 14.69-19.65 3.95-4.87 18.53-23.47 32.39-41.35 13.87-17.87 26.84-34.52 28.82-36.99 1.98-2.47 3.95-4.94 4.37-5.5 0.42-0.56 2.98-3.93 5.69-7.51 2.71-3.57 11.71-15.27 20.01-26 8.29-10.72 15.06-20.06 15.05-20.75-0.02-0.99-19.9-1.25-96-1.25h-95.99z"/>
</svg>
