<svg version="1.2" xmlns="http://www.w3.org/2000/svg" viewBox="0 0 500 500" width="500" height="500">
	<style>
		.s0 { opacity: .99;fill: #e21b79 } 
	</style>
	<g id="Folder 1">
		<path id="Path 0" class="s0" d="m132 106.2c-1.14 0.98-1.36 5.8-1.2 26 0.17 21.03 0.43 24.88 1.7 25.3 0.82 0.27 32.55 0.5 70.5 0.5 37.95 0 69.21 0.34 69.46 0.75 0.26 0.41-2.47 4.57-6.06 9.25-3.59 4.68-8.22 10.75-10.3 13.5-2.07 2.75-5.02 6.35-6.55 8-1.54 1.65-7.24 8.85-12.68 16-5.44 7.15-12.25 15.98-15.13 19.62-2.88 3.64-6.59 8.31-8.24 10.38-1.65 2.07-6.83 8.59-11.5 14.48-4.67 5.9-13.45 16.94-19.5 24.52-6.05 7.59-13.93 17.67-17.52 22.4-3.58 4.73-9.21 12-12.5 16.16-3.29 4.16-7.1 9.05-8.48 10.88-1.37 1.83-3.18 4.14-4 5.13-0.82 1-4.2 5.28-7.5 9.53-3.3 4.24-10.68 13.61-16.4 20.81-5.71 7.2-11.01 13.99-11.77 15.09-1.12 1.62-1.14 2.23-0.11 3.22 0.98 0.93 25.13 1.28 104.28 1.5l103 0.28c-0.44 25.1-0.2 28.51 0.75 28.54 0.69 0.02 3.5-1.59 6.25-3.56 2.75-1.98 9.73-6.93 15.5-11.01 5.77-4.09 11.99-8.45 13.81-9.7 1.82-1.25 3.85-2.74 4.5-3.32 0.65-0.58 5.46-4.07 10.69-7.76 5.23-3.69 11.94-8.4 14.92-10.45 2.98-2.06 6.8-4.91 8.5-6.34l3.08-2.6c-12.16-9.92-17.56-14.02-19.85-15.52-2.28-1.5-6.3-4.2-8.94-6-2.63-1.8-7.13-4.95-10-7-2.86-2.05-5.66-4.1-6.21-4.57-0.55-0.46-7.88-5.54-16.29-11.28-13.3-9.07-15.47-10.23-16.62-8.93-1.07 1.22-1.11 3.89-0.21 14.29 0.97 11.11 0.92 12.92-0.38 13.76-0.91 0.59-16.5 0.92-39.5 0.85-20.9-0.07-38.56-0.3-39.25-0.51-0.97-0.3-0.99-0.9-0.1-2.64 0.63-1.24 2.8-4.27 4.83-6.75 2.03-2.48 4.78-6.12 6.11-8.11 1.32-1.99 4.43-5.86 6.91-8.61 2.48-2.75 9-10.96 14.5-18.24 5.5-7.29 10.85-14.21 11.88-15.39 1.04-1.18 4.41-5.47 7.5-9.52 3.09-4.06 6.52-8.62 7.62-10.13 1.1-1.52 4.37-5.63 7.28-9.13 2.9-3.5 5.61-6.82 6.03-7.37 0.41-0.55 2.09-2.79 3.72-4.98 1.63-2.19 3.5-4.66 4.15-5.5 0.65-0.84 5.56-7.15 10.92-14.02 5.36-6.88 12.29-15.65 15.39-19.5 3.11-3.85 7.63-9.7 10.04-13 2.41-3.3 4.74-6.45 5.17-7 0.43-0.55 3.72-4.6 7.31-9 3.59-4.4 11.68-14.75 17.99-23 6.3-8.25 13.94-18.26 16.98-22.25 3.04-3.99 5.29-7.7 5.02-8.25-0.33-0.66-46.1-1-134.3-1-102.62 0-134.13 0.28-135.2 1.2z"/>
	</g>
</svg>